<mxfile host="app.diagrams.net" modified="2024-06-24T21:15:11.537Z" agent="Mozilla/5.0 (X11; Linux x86_64) AppleWebKit/537.36 (KHTML, like Gecko) Chrome/123.0.0.0 Safari/537.36" etag="HpOAaJgcxuHsVL1h96E-" version="24.6.2" type="github">
  <diagram id="C5RBs43oDa-KdzZeNtuy" name="Page-1">
    <mxGraphModel dx="834" dy="447" grid="1" gridSize="10" guides="1" tooltips="1" connect="1" arrows="1" fold="1" page="1" pageScale="1" pageWidth="827" pageHeight="1169" math="0" shadow="0">
      <root>
        <mxCell id="WIyWlLk6GJQsqaUBKTNV-0" />
        <mxCell id="WIyWlLk6GJQsqaUBKTNV-1" parent="WIyWlLk6GJQsqaUBKTNV-0" />
        <mxCell id="ZPt9c3rrjpf2K3RMU3uE-12" style="edgeStyle=orthogonalEdgeStyle;rounded=0;orthogonalLoop=1;jettySize=auto;html=1;entryX=0.5;entryY=0;entryDx=0;entryDy=0;" edge="1" parent="WIyWlLk6GJQsqaUBKTNV-1" source="ZPt9c3rrjpf2K3RMU3uE-0" target="ZPt9c3rrjpf2K3RMU3uE-1">
          <mxGeometry relative="1" as="geometry" />
        </mxCell>
        <mxCell id="ZPt9c3rrjpf2K3RMU3uE-0" value="Sensor ultrassônico verifica se a vaga em seu perímetro está ocupada&amp;nbsp;" style="rounded=0;whiteSpace=wrap;html=1;" vertex="1" parent="WIyWlLk6GJQsqaUBKTNV-1">
          <mxGeometry x="334" y="190" width="160" height="100" as="geometry" />
        </mxCell>
        <mxCell id="ZPt9c3rrjpf2K3RMU3uE-10" style="edgeStyle=orthogonalEdgeStyle;rounded=0;orthogonalLoop=1;jettySize=auto;html=1;" edge="1" parent="WIyWlLk6GJQsqaUBKTNV-1" source="ZPt9c3rrjpf2K3RMU3uE-1" target="ZPt9c3rrjpf2K3RMU3uE-3">
          <mxGeometry relative="1" as="geometry" />
        </mxCell>
        <mxCell id="ZPt9c3rrjpf2K3RMU3uE-1" value="houve uma mudança de estado?" style="rhombus;whiteSpace=wrap;html=1;" vertex="1" parent="WIyWlLk6GJQsqaUBKTNV-1">
          <mxGeometry x="329" y="340" width="170" height="110" as="geometry" />
        </mxCell>
        <mxCell id="ZPt9c3rrjpf2K3RMU3uE-14" style="edgeStyle=orthogonalEdgeStyle;rounded=0;orthogonalLoop=1;jettySize=auto;html=1;entryX=0.5;entryY=1;entryDx=0;entryDy=0;" edge="1" parent="WIyWlLk6GJQsqaUBKTNV-1" source="ZPt9c3rrjpf2K3RMU3uE-3" target="ZPt9c3rrjpf2K3RMU3uE-13">
          <mxGeometry relative="1" as="geometry" />
        </mxCell>
        <mxCell id="ZPt9c3rrjpf2K3RMU3uE-3" value="sistema central computa o acréscimo/decréscimo da quantidade de vagas disponíveis" style="rounded=0;whiteSpace=wrap;html=1;" vertex="1" parent="WIyWlLk6GJQsqaUBKTNV-1">
          <mxGeometry x="590" y="345" width="160" height="100" as="geometry" />
        </mxCell>
        <mxCell id="ZPt9c3rrjpf2K3RMU3uE-7" value="" style="endArrow=none;html=1;rounded=0;exitX=0;exitY=0.5;exitDx=0;exitDy=0;" edge="1" parent="WIyWlLk6GJQsqaUBKTNV-1" source="ZPt9c3rrjpf2K3RMU3uE-1">
          <mxGeometry width="50" height="50" relative="1" as="geometry">
            <mxPoint x="420" y="360" as="sourcePoint" />
            <mxPoint x="240" y="240" as="targetPoint" />
            <Array as="points">
              <mxPoint x="240" y="395" />
            </Array>
          </mxGeometry>
        </mxCell>
        <mxCell id="ZPt9c3rrjpf2K3RMU3uE-8" value="" style="endArrow=classic;html=1;rounded=0;entryX=0;entryY=0.5;entryDx=0;entryDy=0;" edge="1" parent="WIyWlLk6GJQsqaUBKTNV-1" target="ZPt9c3rrjpf2K3RMU3uE-0">
          <mxGeometry width="50" height="50" relative="1" as="geometry">
            <mxPoint x="240" y="240" as="sourcePoint" />
            <mxPoint x="470" y="310" as="targetPoint" />
          </mxGeometry>
        </mxCell>
        <mxCell id="ZPt9c3rrjpf2K3RMU3uE-9" value="Não" style="text;html=1;align=center;verticalAlign=middle;whiteSpace=wrap;rounded=0;" vertex="1" parent="WIyWlLk6GJQsqaUBKTNV-1">
          <mxGeometry x="260" y="360" width="60" height="30" as="geometry" />
        </mxCell>
        <mxCell id="ZPt9c3rrjpf2K3RMU3uE-11" value="Sim" style="text;html=1;align=center;verticalAlign=middle;whiteSpace=wrap;rounded=0;" vertex="1" parent="WIyWlLk6GJQsqaUBKTNV-1">
          <mxGeometry x="510" y="360" width="60" height="30" as="geometry" />
        </mxCell>
        <mxCell id="ZPt9c3rrjpf2K3RMU3uE-13" value="Quantidade de vagas disponíveis é apresentada&amp;nbsp;&lt;div&gt;no painel de led&lt;/div&gt;" style="rounded=0;whiteSpace=wrap;html=1;" vertex="1" parent="WIyWlLk6GJQsqaUBKTNV-1">
          <mxGeometry x="590" y="190" width="160" height="90" as="geometry" />
        </mxCell>
      </root>
    </mxGraphModel>
  </diagram>
</mxfile>
